<mxfile host="app.diagrams.net" agent="Mozilla/5.0 (Windows NT 10.0; Win64; x64) AppleWebKit/537.36 (KHTML, like Gecko) Chrome/129.0.0.0 Safari/537.36 Edg/129.0.0.0" version="24.7.17">
  <diagram name="Page-1" id="3YTMlz5B7hTkmoOkH6Kz">
    <mxGraphModel dx="1554" dy="863" grid="1" gridSize="10" guides="1" tooltips="1" connect="1" arrows="1" fold="1" page="1" pageScale="1" pageWidth="850" pageHeight="1100" math="0" shadow="0">
      <root>
        <mxCell id="0" />
        <mxCell id="1" parent="0" />
        <mxCell id="6BV9BhUui9PtPSBcLwxw-22" style="edgeStyle=orthogonalEdgeStyle;rounded=0;orthogonalLoop=1;jettySize=auto;html=1;entryX=0.5;entryY=1;entryDx=0;entryDy=0;" edge="1" parent="1" source="6BV9BhUui9PtPSBcLwxw-1" target="6BV9BhUui9PtPSBcLwxw-21">
          <mxGeometry relative="1" as="geometry">
            <mxPoint x="400" y="540" as="targetPoint" />
          </mxGeometry>
        </mxCell>
        <mxCell id="6BV9BhUui9PtPSBcLwxw-1" value="Energy&amp;nbsp;&lt;div&gt;source&amp;nbsp;&lt;/div&gt;" style="ellipse;whiteSpace=wrap;html=1;aspect=fixed;" vertex="1" parent="1">
          <mxGeometry x="360" y="550" width="80" height="80" as="geometry" />
        </mxCell>
        <mxCell id="6BV9BhUui9PtPSBcLwxw-5" style="edgeStyle=orthogonalEdgeStyle;rounded=0;orthogonalLoop=1;jettySize=auto;html=1;entryX=0;entryY=1;entryDx=0;entryDy=0;" edge="1" parent="1" source="6BV9BhUui9PtPSBcLwxw-2" target="6BV9BhUui9PtPSBcLwxw-1">
          <mxGeometry relative="1" as="geometry" />
        </mxCell>
        <mxCell id="6BV9BhUui9PtPSBcLwxw-2" value="Watter" style="ellipse;whiteSpace=wrap;html=1;aspect=fixed;" vertex="1" parent="1">
          <mxGeometry x="260" y="630" width="80" height="80" as="geometry" />
        </mxCell>
        <mxCell id="6BV9BhUui9PtPSBcLwxw-7" style="edgeStyle=orthogonalEdgeStyle;rounded=0;orthogonalLoop=1;jettySize=auto;html=1;entryX=0.5;entryY=1;entryDx=0;entryDy=0;" edge="1" parent="1" source="6BV9BhUui9PtPSBcLwxw-3" target="6BV9BhUui9PtPSBcLwxw-1">
          <mxGeometry relative="1" as="geometry" />
        </mxCell>
        <mxCell id="6BV9BhUui9PtPSBcLwxw-3" value="Electricity" style="ellipse;whiteSpace=wrap;html=1;aspect=fixed;" vertex="1" parent="1">
          <mxGeometry x="360" y="680" width="80" height="80" as="geometry" />
        </mxCell>
        <mxCell id="6BV9BhUui9PtPSBcLwxw-6" style="edgeStyle=orthogonalEdgeStyle;rounded=0;orthogonalLoop=1;jettySize=auto;html=1;entryX=1;entryY=1;entryDx=0;entryDy=0;" edge="1" parent="1" source="6BV9BhUui9PtPSBcLwxw-4" target="6BV9BhUui9PtPSBcLwxw-1">
          <mxGeometry relative="1" as="geometry" />
        </mxCell>
        <mxCell id="6BV9BhUui9PtPSBcLwxw-4" value="Gas" style="ellipse;whiteSpace=wrap;html=1;aspect=fixed;" vertex="1" parent="1">
          <mxGeometry x="460" y="630" width="80" height="80" as="geometry" />
        </mxCell>
        <mxCell id="6BV9BhUui9PtPSBcLwxw-8" value="KPI" style="ellipse;whiteSpace=wrap;html=1;aspect=fixed;" vertex="1" parent="1">
          <mxGeometry x="190" y="320" width="80" height="80" as="geometry" />
        </mxCell>
        <mxCell id="6BV9BhUui9PtPSBcLwxw-11" style="edgeStyle=orthogonalEdgeStyle;rounded=0;orthogonalLoop=1;jettySize=auto;html=1;entryX=0.5;entryY=0;entryDx=0;entryDy=0;" edge="1" parent="1" source="6BV9BhUui9PtPSBcLwxw-9" target="6BV9BhUui9PtPSBcLwxw-10">
          <mxGeometry relative="1" as="geometry" />
        </mxCell>
        <mxCell id="6BV9BhUui9PtPSBcLwxw-9" value="Production" style="ellipse;whiteSpace=wrap;html=1;aspect=fixed;" vertex="1" parent="1">
          <mxGeometry x="360" y="200" width="80" height="80" as="geometry" />
        </mxCell>
        <mxCell id="6BV9BhUui9PtPSBcLwxw-13" style="edgeStyle=orthogonalEdgeStyle;rounded=0;orthogonalLoop=1;jettySize=auto;html=1;entryX=1;entryY=0.5;entryDx=0;entryDy=0;" edge="1" parent="1" source="6BV9BhUui9PtPSBcLwxw-10" target="6BV9BhUui9PtPSBcLwxw-8">
          <mxGeometry relative="1" as="geometry" />
        </mxCell>
        <mxCell id="6BV9BhUui9PtPSBcLwxw-15" value="Part of" style="edgeLabel;html=1;align=center;verticalAlign=middle;resizable=0;points=[];" vertex="1" connectable="0" parent="6BV9BhUui9PtPSBcLwxw-13">
          <mxGeometry x="-0.0585" relative="1" as="geometry">
            <mxPoint as="offset" />
          </mxGeometry>
        </mxCell>
        <mxCell id="6BV9BhUui9PtPSBcLwxw-10" value="KPI&lt;div&gt;Production&lt;/div&gt;" style="ellipse;whiteSpace=wrap;html=1;aspect=fixed;" vertex="1" parent="1">
          <mxGeometry x="360" y="320" width="80" height="80" as="geometry" />
        </mxCell>
        <mxCell id="6BV9BhUui9PtPSBcLwxw-20" style="edgeStyle=orthogonalEdgeStyle;rounded=0;orthogonalLoop=1;jettySize=auto;html=1;entryX=1;entryY=0.5;entryDx=0;entryDy=0;" edge="1" parent="1" source="6BV9BhUui9PtPSBcLwxw-16" target="6BV9BhUui9PtPSBcLwxw-10">
          <mxGeometry relative="1" as="geometry" />
        </mxCell>
        <mxCell id="6BV9BhUui9PtPSBcLwxw-16" value="Target" style="rounded=0;whiteSpace=wrap;html=1;" vertex="1" parent="1">
          <mxGeometry x="470" y="315" width="90" height="40" as="geometry" />
        </mxCell>
        <mxCell id="6BV9BhUui9PtPSBcLwxw-19" style="edgeStyle=orthogonalEdgeStyle;rounded=0;orthogonalLoop=1;jettySize=auto;html=1;entryX=1;entryY=0.5;entryDx=0;entryDy=0;" edge="1" parent="1" source="6BV9BhUui9PtPSBcLwxw-17" target="6BV9BhUui9PtPSBcLwxw-10">
          <mxGeometry relative="1" as="geometry" />
        </mxCell>
        <mxCell id="6BV9BhUui9PtPSBcLwxw-17" value="Value" style="rounded=0;whiteSpace=wrap;html=1;" vertex="1" parent="1">
          <mxGeometry x="470" y="365" width="90" height="40" as="geometry" />
        </mxCell>
        <mxCell id="6BV9BhUui9PtPSBcLwxw-23" style="edgeStyle=orthogonalEdgeStyle;rounded=0;orthogonalLoop=1;jettySize=auto;html=1;entryX=0.5;entryY=1;entryDx=0;entryDy=0;" edge="1" parent="1" source="6BV9BhUui9PtPSBcLwxw-21" target="6BV9BhUui9PtPSBcLwxw-10">
          <mxGeometry relative="1" as="geometry" />
        </mxCell>
        <mxCell id="6BV9BhUui9PtPSBcLwxw-21" value="Energy for&lt;div&gt;KPI&lt;/div&gt;" style="ellipse;whiteSpace=wrap;html=1;aspect=fixed;" vertex="1" parent="1">
          <mxGeometry x="360" y="430" width="80" height="80" as="geometry" />
        </mxCell>
        <mxCell id="6BV9BhUui9PtPSBcLwxw-26" style="edgeStyle=orthogonalEdgeStyle;rounded=0;orthogonalLoop=1;jettySize=auto;html=1;entryX=1;entryY=0.5;entryDx=0;entryDy=0;" edge="1" parent="1" source="6BV9BhUui9PtPSBcLwxw-24" target="6BV9BhUui9PtPSBcLwxw-21">
          <mxGeometry relative="1" as="geometry" />
        </mxCell>
        <mxCell id="6BV9BhUui9PtPSBcLwxw-24" value="Index" style="rounded=0;whiteSpace=wrap;html=1;" vertex="1" parent="1">
          <mxGeometry x="470" y="430" width="90" height="40" as="geometry" />
        </mxCell>
        <mxCell id="6BV9BhUui9PtPSBcLwxw-27" style="edgeStyle=orthogonalEdgeStyle;rounded=0;orthogonalLoop=1;jettySize=auto;html=1;entryX=1;entryY=0.5;entryDx=0;entryDy=0;" edge="1" parent="1" source="6BV9BhUui9PtPSBcLwxw-25" target="6BV9BhUui9PtPSBcLwxw-21">
          <mxGeometry relative="1" as="geometry" />
        </mxCell>
        <mxCell id="6BV9BhUui9PtPSBcLwxw-25" value="Value" style="rounded=0;whiteSpace=wrap;html=1;" vertex="1" parent="1">
          <mxGeometry x="470" y="480" width="90" height="40" as="geometry" />
        </mxCell>
      </root>
    </mxGraphModel>
  </diagram>
</mxfile>
